HIERARCHY
ROOT Hips
{
	OFFSET -0.001795 -0.223333 0.028219
	CHANNELS 6 Xposition Yposition Zposition Zrotation Yrotation Xrotation
	JOINT LeftUpLeg
	{
		OFFSET 0.069520 -0.091406 -0.006815
		CHANNELS 3 Zrotation Yrotation Xrotation
		JOINT LeftLeg
		{
			OFFSET 0.034277 -0.375199 -0.004496
			CHANNELS 3 Zrotation Yrotation Xrotation
			JOINT LeftFoot
			{
				OFFSET -0.013596 -0.397961 -0.043693
				CHANNELS 3 Zrotation Yrotation Xrotation
				JOINT LeftToe
				{
					OFFSET 0.026358 -0.055791 0.119288
					CHANNELS 3 Zrotation Yrotation Xrotation
					End Site
					{
						OFFSET 0.000000 0.000000 0.000000
					}
				}
			}
		}
	}
	JOINT RightUpLeg
	{
		OFFSET -0.067670 -0.090522 -0.004320
		CHANNELS 3 Zrotation Yrotation Xrotation
		JOINT RightLeg
		{
			OFFSET -0.038290 -0.382569 -0.008850
			CHANNELS 3 Zrotation Yrotation Xrotation
			JOINT RightFoot
			{
				OFFSET 0.015774 -0.398415 -0.042312
				CHANNELS 3 Zrotation Yrotation Xrotation
				JOINT RightToe
				{
					OFFSET -0.025372 -0.048144 0.123348
					CHANNELS 3 Zrotation Yrotation Xrotation
					End Site
					{
						OFFSET 0.000000 0.000000 0.000000
					}
				}
			}
		}
	}
	JOINT Spine
	{
		OFFSET -0.002533 0.108963 -0.026696
		CHANNELS 3 Zrotation Yrotation Xrotation
		JOINT Spine1
		{
			OFFSET 0.005487 0.135180 0.001092
			CHANNELS 3 Zrotation Yrotation Xrotation
			JOINT Spine2
			{
				OFFSET 0.001457 0.052922 0.025425
				CHANNELS 3 Zrotation Yrotation Xrotation
				JOINT Neck
				{
					OFFSET -0.002778 0.213870 -0.042857
					CHANNELS 3 Zrotation Yrotation Xrotation
					JOINT Head
					{
						OFFSET 0.005152 0.064970 0.051349
						CHANNELS 3 Zrotation Yrotation Xrotation
						End Site
						{
							OFFSET 0.000000 0.000000 0.000000
						}
					}
				}
				JOINT LeftShoulder
				{
					OFFSET 0.078845 0.121749 -0.034090
					CHANNELS 3 Zrotation Yrotation Xrotation
					JOINT LeftArm
					{
						OFFSET 0.090977 0.030469 -0.008868
						CHANNELS 3 Zrotation Yrotation Xrotation
						JOINT LeftForeArm
						{
							OFFSET 0.259612 -0.012772 -0.027456
							CHANNELS 3 Zrotation Yrotation Xrotation
							JOINT LeftHand
							{
								OFFSET 0.249234 0.008986 -0.001171
								CHANNELS 3 Zrotation Yrotation Xrotation
								End Site
								{
									OFFSET 0.000000 0.000000 0.000000
								}
							}
						}
					}
				}
				JOINT RightShoulder
				{
					OFFSET -0.081759 0.118833 -0.038615
					CHANNELS 3 Zrotation Yrotation Xrotation
					JOINT RightArm
					{
						OFFSET -0.096012 0.032551 -0.009143
						CHANNELS 3 Zrotation Yrotation Xrotation
						JOINT RightForeArm
						{
							OFFSET -0.253742 -0.013329 -0.021401
							CHANNELS 3 Zrotation Yrotation Xrotation
							JOINT RightHand
							{
								OFFSET -0.255298 0.007772 -0.005559
								CHANNELS 3 Zrotation Yrotation Xrotation
								End Site
								{
									OFFSET 0.000000 0.000000 0.000000
								}
							}
						}
					}
				}
			}
		}
	}
}
MOTION
Frames: 11
Frame Time: 0.050000
0.149468 0.707251 0.479834 -15.233153 -6.021484 10.560571 8.011759 -0.074551 2.751747 -9.128949 7.838103 62.042842 2.777732 -2.882223 -18.825125 0.000000 0.000000 0.000000 2.736498 4.872591 -33.405447 19.124897 -10.473094 73.006685 -10.559287 -35.615429 -27.529546 0.000000 0.000000 0.000000 -4.612568 0.561367 30.943093 19.793118 -3.940171 -23.551878 -2.988699 -13.191031 27.417699 -6.736911 2.551129 -30.649779 0.000000 0.000000 0.000000 -34.304417 -2.297792 7.710490 -37.532518 -19.807172 -3.188391 32.589909 -46.308638 -8.534435 0.000000 0.000000 0.000000 38.527684 13.168796 -3.129866 28.534674 -4.736773 -2.518766 -32.756762 87.006580 -30.914678 0.000000 0.000000 0.000000
0.152852 0.687951 0.488598 -15.253133 -7.899271 9.723341 7.820094 0.035089 4.169515 -9.472411 9.358302 64.266849 3.845705 -2.021249 -23.088910 0.000000 0.000000 0.000000 3.302509 4.734212 -31.009612 18.516794 -9.500095 77.702568 -9.447024 -32.847242 -32.613052 0.000000 0.000000 0.000000 -4.266411 0.478411 27.553603 19.261968 -3.847042 -23.454430 -3.389398 -13.751876 28.030567 -5.096507 1.425838 -29.941658 0.000000 0.000000 0.000000 -33.996255 -2.114232 8.262962 -39.674035 -18.229670 -3.860698 31.448822 -49.425097 -8.331034 0.000000 0.000000 0.000000 37.760422 12.673248 -4.326984 28.620195 -5.125750 -2.476043 -9.160192 85.319440 -8.676974 0.000000 0.000000 0.000000
0.154868 0.667497 0.495976 -15.049887 -9.183213 8.764720 7.349099 0.140026 5.256985 -9.558575 10.457088 66.556659 4.412688 -0.767668 -24.361779 0.000000 0.000000 0.000000 3.679748 4.479003 -28.794903 17.835593 -8.675168 82.622539 -9.019000 -30.468107 -33.480010 0.000000 0.000000 0.000000 -3.787400 0.332348 25.208589 18.846830 -3.783369 -23.374437 -3.922735 -14.307539 27.795466 -5.086296 1.211861 -28.210758 0.000000 0.000000 0.000000 -34.653396 -2.198264 9.020656 -40.467439 -17.163613 -4.406992 29.489240 -51.738313 -7.738475 0.000000 0.000000 0.000000 38.812834 12.003036 -5.869191 27.241959 -5.567022 -2.213946 -6.466219 84.487758 -6.010832 0.000000 0.000000 0.000000
0.155689 0.645532 0.501401 -15.051027 -10.288969 8.211964 7.007134 0.196257 5.366282 -9.554432 11.772528 69.939334 5.241707 -0.339179 -27.928446 0.000000 0.000000 0.000000 3.924116 4.368526 -27.644008 16.930420 -7.484262 87.086327 -9.006553 -28.195999 -29.522722 0.000000 0.000000 0.000000 -3.324913 0.194888 22.866399 18.320128 -3.659889 -23.438238 -3.839806 -14.860153 28.101620 -4.066068 0.427675 -28.514737 0.000000 0.000000 0.000000 -35.069696 -1.573150 9.172352 -41.521207 -16.908598 -4.717376 26.250975 -53.202977 -6.221632 0.000000 0.000000 0.000000 38.276495 11.474153 -6.875904 27.869858 -5.021130 -2.081360 -7.982992 83.143277 -7.564779 0.000000 0.000000 0.000000
0.155554 0.626878 0.505134 -14.979425 -11.108225 7.206761 6.866225 0.238934 5.414099 -9.427154 12.858194 73.397299 5.601184 0.869952 -27.903584 0.000000 0.000000 0.000000 4.454662 4.368538 -26.886537 15.970600 -6.216236 90.809338 -8.876924 -26.569818 -26.793057 0.000000 0.000000 0.000000 -2.943550 0.103316 22.051687 18.890084 -3.810655 -23.387852 -4.220311 -14.393072 28.093553 -3.381823 0.031568 -26.511309 0.000000 0.000000 0.000000 -36.110546 -2.241779 9.891366 -41.990682 -17.134654 -4.787166 22.339941 -52.821276 -4.428482 0.000000 0.000000 0.000000 39.673510 11.191131 -7.364777 26.864254 -4.026820 -1.782200 -16.909457 82.893446 -14.952114 0.000000 0.000000 0.000000
0.154778 0.609388 0.508070 -14.881667 -12.233342 6.439592 6.299110 0.267029 4.851837 -9.184647 14.252628 77.252616 6.159914 1.587763 -29.417977 0.000000 0.000000 0.000000 4.665014 4.477006 -26.908731 15.414165 -5.110413 94.776952 -8.805405 -25.858640 -24.180115 0.000000 0.000000 0.000000 -2.481390 0.015941 21.212005 18.935389 -3.827075 -23.413658 -4.192866 -14.352331 28.226039 -2.780966 -0.419266 -26.479248 0.000000 0.000000 0.000000 -36.567984 -2.445350 10.405074 -42.850162 -16.475912 -5.149522 20.399439 -52.345910 -3.448181 0.000000 0.000000 0.000000 39.247551 11.904422 -6.936780 27.594391 -3.281319 -1.697589 -18.131178 80.897841 -15.605059 0.000000 0.000000 0.000000
0.153572 0.595528 0.510744 -14.350452 -12.895791 5.467160 6.091253 0.264960 4.185641 -8.908003 15.228700 80.641585 6.347693 2.370005 -28.716056 0.000000 0.000000 0.000000 4.742115 4.473783 -26.649667 14.924595 -4.260489 97.959759 -8.520673 -24.611220 -23.486895 0.000000 0.000000 0.000000 -2.060400 -0.080895 20.160886 19.059261 -4.111004 -22.320958 -4.468355 -14.165890 27.585227 -2.308157 -0.694898 -25.688876 0.000000 0.000000 0.000000 -37.269453 -2.851516 10.875942 -43.682139 -16.053878 -5.338211 18.112268 -51.970498 -2.415832 0.000000 0.000000 0.000000 39.601979 11.671205 -7.202851 27.995373 -2.359534 -1.527600 -17.245422 81.400870 -14.915084 0.000000 0.000000 0.000000
0.152120 0.583748 0.513502 -13.900684 -13.852966 4.681232 5.858891 0.284887 3.922350 -8.667778 16.463078 83.740147 6.508911 2.091767 -29.008991 0.000000 0.000000 0.000000 5.260183 4.500504 -26.074776 14.645742 -3.266549 100.724410 -8.452389 -24.234830 -21.696050 0.000000 0.000000 0.000000 -1.537847 -0.178670 18.999957 18.601338 -4.014688 -22.413157 -4.827454 -14.236294 28.320426 -2.223751 -0.877817 -25.788557 0.000000 0.000000 0.000000 -37.864679 -3.086331 11.542471 -43.961903 -15.556119 -5.723670 16.973524 -51.792873 -1.899568 0.000000 0.000000 0.000000 39.285171 11.886067 -7.298126 28.841059 -1.643714 -1.436723 -4.876309 81.760856 -4.528754 0.000000 0.000000 0.000000
0.150112 0.575524 0.515893 -13.346768 -14.043177 3.651528 5.529788 0.314465 4.106038 -8.104126 16.501526 86.143729 6.334502 0.902243 -28.774431 0.000000 0.000000 0.000000 5.075397 4.225955 -24.954954 13.927325 -2.133280 102.625193 -7.898371 -22.190440 -24.153448 0.000000 0.000000 0.000000 -1.279980 -0.230080 18.418759 17.935732 -4.044285 -21.746922 -4.573364 -14.599528 27.891432 -1.922350 -1.106076 -25.912700 0.000000 0.000000 0.000000 -37.817538 -2.848216 11.456564 -45.064581 -14.430036 -6.105223 16.156646 -53.296127 -1.450594 0.000000 0.000000 0.000000 38.525532 11.764108 -7.407806 30.149811 -1.192270 -1.405635 6.259416 83.267943 4.845353 0.000000 0.000000 0.000000
0.147801 0.566796 0.517337 -12.787584 -13.758259 2.984031 5.524299 0.286438 3.584083 -7.332363 16.159696 89.548685 6.100504 0.172964 -27.717467 0.000000 0.000000 0.000000 4.936713 4.079944 -24.449992 13.325680 -1.619412 104.789634 -7.533918 -20.598758 -25.997773 0.000000 0.000000 0.000000 -1.247753 -0.251788 17.654801 17.561696 -3.978828 -21.796100 -4.557784 -14.910268 28.378513 -1.339101 -1.490258 -25.947509 0.000000 0.000000 0.000000 -37.965968 -2.399773 11.250250 -45.303768 -14.334954 -6.243899 15.118342 -54.512080 -0.830920 0.000000 0.000000 0.000000 38.027389 11.411005 -7.594824 30.311767 -0.803576 -1.383323 28.868488 84.495818 25.384270 0.000000 0.000000 0.000000
0.144800 0.558875 0.517686 -11.851094 -12.998720 2.223878 5.188342 0.274860 3.455138 -6.569407 15.054441 91.981927 6.271642 -1.363969 -29.805622 0.000000 0.000000 0.000000 4.448617 3.788730 -23.638680 12.706734 -1.503964 106.899401 -7.020178 -17.471678 -28.899953 0.000000 0.000000 0.000000 -1.633182 -0.206952 16.936230 17.491617 -4.111308 -21.169761 -4.458268 -15.034543 27.903877 -1.536545 -1.295182 -25.651780 0.000000 0.000000 0.000000 -37.593864 -2.704814 11.136248 -45.243056 -13.429122 -6.387768 15.366597 -57.019023 -1.031691 0.000000 0.000000 0.000000 37.411953 11.078145 -7.412966 31.105619 -0.846633 -1.519175 61.301921 86.643538 57.256586 0.000000 0.000000 0.000000
